<?xml version="1.0" encoding="utf-8"?>
<!-- Generator: Adobe Illustrator 16.0.4, SVG Export Plug-In . SVG Version: 6.00 Build 0)  -->
<!DOCTYPE svg PUBLIC "-//W3C//DTD SVG 1.1//EN" "http://www.w3.org/Graphics/SVG/1.1/DTD/svg11.dtd">
<svg version="1.1" id="Layer_1" xmlns="http://www.w3.org/2000/svg" xmlns:xlink="http://www.w3.org/1999/xlink" x="0px" y="0px"
	 width="593.77px" height="148px" viewBox="0 0 593.77 148" enable-background="new 0 0 593.77 148" xml:space="preserve">
<g>
	<path fill-rule="evenodd" clip-rule="evenodd" fill="#32BFC9" d="M98,36L86,48H62.02L50,36V0h48V36z"/>
	<path fill-rule="evenodd" clip-rule="evenodd" fill="#32BFC9" d="M48,86L36,98H0V50h48V86z"/>
	<path fill-rule="evenodd" clip-rule="evenodd" fill="#32BFC9" d="M0,12L12,0h36v48H0V12z"/>
	<path fill-rule="evenodd" clip-rule="evenodd" fill="#32BFC9" d="M112,48l-12-12V0h48v48H112z"/>
	<path fill-rule="evenodd" clip-rule="evenodd" fill="#32BFC9" d="M112,98l-12-12V62.02L112,50h36v48H112z"/>
	<path fill-rule="evenodd" clip-rule="evenodd" fill="#32BFC9" d="M50,112l12-12h23.98L98,112v36H50V112z"/>
	<path fill-rule="evenodd" clip-rule="evenodd" fill="#32BFC9" d="M36,100l12,12v23.98L36,148H0v-48H36z"/>
	<path fill-rule="evenodd" clip-rule="evenodd" fill="#32BFC9" d="M136,100l12,12v36h-48v-48H136z"/>
	<path fill="#666766" d="M247.305,101.677c-3.541,0-7.081,0-10.622,0c-0.327-0.713-0.755-1.397-0.966-2.144
		c-2.49-8.838-4.945-17.687-7.418-26.529c-0.143-0.511-0.362-1-0.545-1.499c-0.423,0.548-0.589,1.001-0.72,1.465
		c-2.474,8.785-4.937,17.573-7.426,26.352c-0.23,0.81-0.629,1.57-0.95,2.354c-3.541,0-7.081,0-10.622,0
		c-0.307-0.849-0.671-1.682-0.913-2.549c-1.578-5.683-3.12-11.374-4.692-17.058c-2.631-9.506-5.27-19.01-7.926-28.509
		c-0.367-1.314-0.848-2.596-1.276-3.892c0-0.217,0-0.434,0-0.65c0.563-0.107,1.125-0.303,1.689-0.308
		c3.593-0.028,7.186-0.017,10.779-0.011c0.473,0,0.945,0.045,1.523,0.076c0.173,0.54,0.375,1.032,0.487,1.543
		c2.061,9.392,4.108,18.787,6.173,28.178c0.104,0.477,0.337,0.924,0.511,1.384c0.101-0.016,0.202-0.031,0.303-0.048
		c2.755-10.355,5.51-20.71,8.266-31.067c3.225,0,6.211,0,9.428,0c2.992,10.355,5.627,20.822,8.786,31.175
		c2.525-10.386,4.526-20.841,6.902-31.125c4.743,0,9.219,0,13.804,0c-0.088,0.605-0.109,1.092-0.234,1.55
		c-0.55,2.02-1.141,4.029-1.697,6.047c-3.365,12.215-6.715,24.436-10.095,36.646C249.056,95.946,248.158,98.805,247.305,101.677z"/>
	<path fill-rule="evenodd" clip-rule="evenodd" fill="#666766" d="M273.261,101.677c-0.079-0.637-0.225-1.272-0.226-1.909
		c-0.012-16.355-0.012-32.712-0.002-49.067c0-0.627,0.112-1.255,0.176-1.926c0.566-0.031,0.987-0.073,1.409-0.074
		c7.187-0.003,14.374-0.075,21.559,0.031c3.657,0.054,7.177,0.913,10.367,2.852c3.61,2.194,5.934,5.346,6.973,9.477
		c1.043,4.143,0.945,8.249-0.582,12.235c-2.056,5.362-6.158,8.419-11.531,9.807c-1.692,0.438-3.479,0.601-5.231,0.681
		c-2.569,0.117-5.147,0.048-7.721,0.058c-0.526,0.002-1.052,0-1.752,0c-0.084,0.77-0.207,1.386-0.209,2.003
		c-0.017,4.657,0.003,9.315-0.024,13.973c-0.003,0.621-0.215,1.241-0.33,1.862C281.845,101.677,277.553,101.677,273.261,101.677z
		 M286.62,72.42c2.711,0,5.169,0.04,7.625-0.009c3.985-0.08,6.686-2.47,6.403-6.738c-0.177-2.673-1.931-4.984-4.573-5.229
		c-2.922-0.27-5.875-0.209-8.814-0.272c-0.187-0.004-0.377,0.164-0.641,0.287C286.62,64.376,286.62,68.283,286.62,72.42z"/>
	<path fill-rule="evenodd" clip-rule="evenodd" fill="#666766" d="M593.77,74.845c-0.823,0.147-1.646,0.419-2.471,0.421
		c-9.889,0.03-19.777,0.017-29.667,0.022c-2.366,0.001-2.356,0.023-2.345,2.408c0.02,3.718,0.338,7.354,1.711,10.892
		c3.078,7.931,10.67,10.056,17.229,9.253c4.76-0.584,8.621-2.78,11.691-6.441c0.492-0.587,0.972-1.556,2.043-0.58
		c0.944,0.858,0.669,1.57-0.019,2.376c-4.013,4.697-9.023,7.283-15.279,7.434c-4.605,0.111-8.94-0.594-12.755-3.391
		c-4.18-3.065-6.244-7.449-6.979-12.317c-1.057-7.01-1.3-14.142,0.353-21.084c2.465-10.358,10.688-14.971,20.78-13.636
		c9.72,1.286,14.424,8.861,15.297,17.632c0.077,0.769,0.271,1.526,0.409,2.289C593.77,71.696,593.77,73.271,593.77,74.845z
		 M574.841,72.685c4.657,0,9.315-0.05,13.972,0.028c1.536,0.025,2.123-0.53,1.942-2.01c-0.146-1.202-0.239-2.411-0.404-3.611
		c-1.049-7.639-5.13-13.965-14.691-14.391c-4.148-0.185-8.097,0.772-11.202,3.867c-3.894,3.879-5.116,8.736-5.142,14.032
		c-0.01,2.047-0.021,2.073,1.982,2.081C565.812,72.695,570.326,72.685,574.841,72.685z"/>
	<path fill-rule="evenodd" clip-rule="evenodd" fill="#666766" d="M468.979,77.229c0,7.728,0.096,15.457-0.054,23.182
		c-0.049,2.532-0.525,5.106-1.166,7.568c-1.418,5.442-5.142,8.804-10.464,10.264c-6.699,1.838-13.166,1.325-19.002-2.808
		c-1.082-0.767-1.973-1.847-2.799-2.901c-0.259-0.331-0.219-1.354,0.044-1.532c0.498-0.338,1.265-0.409,1.901-0.359
		c0.326,0.026,0.629,0.54,0.916,0.856c4.208,4.656,9.666,5.613,15.483,4.82c8.854-1.207,11.439-7.038,12.074-13.976
		c0.279-3.052,0.068-6.149,0.06-9.225c-0.001-0.312-0.146-0.622-0.223-0.934c-0.221,0.25-0.495,0.47-0.652,0.754
		c-1.877,3.383-4.505,5.874-8.318,6.902c-4.747,1.281-9.483,1.287-14.02-0.746c-5.375-2.408-7.917-7.07-8.988-12.52
		c-1.486-7.562-1.552-15.231,0.038-22.765c2.219-10.51,9.925-15,20.318-13.618c4.928,0.656,8.421,3.214,10.91,7.372
		c0.193,0.324,0.539,0.559,0.814,0.835c0.044-0.344,0.12-0.687,0.124-1.031c0.016-1.216-0.053-2.437,0.024-3.648
		c0.072-1.135-0.672-2.808,1.537-2.776c2.061,0.03,1.408,1.608,1.419,2.674c0.049,4.937,0.021,9.874,0.021,14.811
		C468.979,71.363,468.979,74.296,468.979,77.229z M466.163,75.348c-0.206-3.059-0.261-6.138-0.658-9.172
		c-0.438-3.343-1.473-6.574-3.822-9.109c-4.133-4.457-9.419-5.107-14.992-3.849c-5.854,1.321-8.697,5.672-9.935,11.13
		c-1.519,6.692-1.301,13.495-0.38,20.233c1.063,7.771,5.273,12.264,12.352,13.257c6.151,0.864,12.979-1.492,15.583-8.768
		C465.913,84.594,466.067,80.007,466.163,75.348z"/>
	<path fill-rule="evenodd" clip-rule="evenodd" fill="#666766" d="M352.335,75.285c-5.088,0.001-10.175,0.003-15.263-0.001
		c-0.947-0.001-1.948-0.12-1.964,1.295c-0.051,4.661,0.219,9.253,2.391,13.533c3.418,6.732,10.498,8.464,16.511,7.736
		c4.755-0.575,8.63-2.752,11.709-6.412c0.475-0.563,0.925-1.611,2.032-0.646c0.949,0.827,0.729,1.527,0.057,2.374
		c-6.649,8.354-18.193,9.18-25.848,5.432c-5.72-2.801-8.33-7.952-9.229-13.838c-1.058-6.929-1.26-13.995,0.367-20.872
		c2.466-10.417,10.703-15.009,20.739-13.696c9.833,1.287,14.467,8.896,15.332,17.587c0.184,1.848,0.248,3.707,0.418,5.556
		c0.138,1.506-0.491,1.998-1.991,1.978C362.51,75.24,357.422,75.284,352.335,75.285z M350.728,72.685
		c4.657,0,9.315-0.034,13.972,0.021c1.37,0.016,2.042-0.423,1.883-1.848c-0.143-1.274-0.23-2.556-0.41-3.825
		c-1.103-7.774-5.265-13.933-14.745-14.336c-4.062-0.173-7.94,0.766-11.026,3.769c-4.013,3.905-5.224,8.827-5.258,14.193
		c-0.013,1.983-0.006,2.016,2.042,2.022C341.699,72.694,346.213,72.685,350.728,72.685z"/>
	<path fill-rule="evenodd" clip-rule="evenodd" fill="#666766" d="M383.812,75.395c0-7.297,0-14.593,0.001-21.89
		c0-0.5-0.174-1.138,0.067-1.469c0.35-0.48,0.968-0.935,1.539-1.043c0.704-0.134,1.415,0.124,1.396,1.146
		c-0.032,1.716-0.02,3.434,0.011,5.15c0.005,0.299,0.19,0.595,0.293,0.892c0.191-0.178,0.453-0.321,0.565-0.541
		c4.731-9.239,19.199-9.545,25.798-4.275c2.942,2.35,4.482,5.512,5.119,9.099c0.384,2.162,0.517,4.391,0.529,6.591
		c0.056,9.442,0.024,18.885,0.023,28.328c0,0.286-0.009,0.572-0.004,0.858c0.016,0.899-0.225,1.494-1.315,1.517
		c-1.195,0.024-1.472-0.62-1.457-1.613c0.009-0.571-0.002-1.145-0.002-1.716c-0.001-8.656,0.102-17.313-0.055-25.966
		c-0.056-3.11-0.384-6.304-1.202-9.292c-1.363-4.981-5.033-7.514-10.115-8.267c-3.505-0.519-6.864-0.233-10.018,1.319
		c-5.469,2.692-8.092,7.289-8.147,13.268c-0.093,10.014-0.019,20.03-0.048,30.044c-0.002,0.661-0.097,1.506-0.502,1.925
		c-0.312,0.324-1.263,0.303-1.772,0.078c-0.367-0.162-0.65-0.901-0.671-1.396c-0.078-1.856-0.033-3.718-0.034-5.578
		C383.812,86.84,383.812,81.117,383.812,75.395z"/>
	<path fill-rule="evenodd" clip-rule="evenodd" fill="#666766" d="M506.304,75.224c0-7.44,0.019-14.88-0.018-22.319
		c-0.007-1.302,0.302-2.106,1.786-1.957c0.829,0.083,1.272,0.431,1.243,1.363c-0.055,1.715-0.022,3.433,0.001,5.15
		c0.003,0.238,0.163,0.474,0.251,0.711c0.201-0.161,0.488-0.28,0.593-0.49c4.658-9.311,19.293-9.546,25.777-4.343
		c2.942,2.36,4.506,5.499,5.15,9.08c0.4,2.229,0.521,4.533,0.535,6.805c0.056,9.371,0.024,18.742,0.021,28.113
		c0,0.5,0.122,1.082-0.091,1.478c-0.216,0.402-0.793,0.884-1.179,0.857c-0.5-0.036-1.186-0.436-1.393-0.869
		c-0.254-0.531-0.112-1.259-0.112-1.901c-0.004-8.728,0.053-17.455-0.037-26.182c-0.027-2.627-0.255-5.29-0.744-7.869
		c-1.135-5.978-4.905-9.17-10.979-9.968c-4.707-0.618-8.937,0.255-12.635,3.272c-3.633,2.964-5.139,6.938-5.158,11.504
		c-0.041,9.8-0.014,19.601-0.015,29.4c0,0.501,0.172,1.11-0.052,1.477c-0.305,0.498-0.914,1.121-1.391,1.119
		c-0.513-0.002-1.308-0.573-1.467-1.062c-0.253-0.778-0.088-1.694-0.088-2.553C506.303,89.102,506.303,82.162,506.304,75.224z"/>
	<path fill-rule="evenodd" clip-rule="evenodd" fill="#666766" d="M489.643,75.381c0.001,7.218,0.001,14.436,0,21.653
		c0,0.5,0.17,1.103-0.05,1.476c-0.297,0.502-0.891,1.139-1.364,1.145c-0.515,0.007-1.166-0.553-1.513-1.04
		c-0.239-0.337-0.07-0.968-0.07-1.468c-0.002-14.578-0.002-29.157-0.002-43.735c0-0.286,0.02-0.573-0.001-0.857
		c-0.077-1.062,0.379-1.611,1.475-1.618c1.185-0.008,1.555,0.548,1.548,1.72C489.621,60.23,489.643,67.806,489.643,75.381z"/>
	<path fill-rule="evenodd" clip-rule="evenodd" fill="#666766" d="M486.04,32.701c0-0.143-0.001-0.285,0-0.427
		c0.011-2.308,1.551-3.354,3.654-2.444c0.283,0.123,0.645,0.481,0.657,0.746c0.07,1.417,0.121,2.847-0.008,4.255
		c-0.031,0.341-0.733,0.823-1.18,0.891C486.252,36.167,486.039,35.932,486.04,32.701z"/>
	<path fill-rule="evenodd" clip-rule="evenodd" fill="#32BFC9" d="M74,68c3.313,0,6,2.687,6,6s-2.687,6-6,6s-6-2.687-6-6
		S70.687,68,74,68z"/>
</g>
</svg>
